<svg width="288" height="288" viewBox="0 0 288 288" version="1.1" xmlns="http://www.w3.org/2000/svg" xmlns:xlink="http://www.w3.org/1999/xlink">
<title>logo_solid_square_blue</title>
<desc>Created using Figma</desc>
<g id="Canvas" transform="translate(510 145)">
<g id="logo_solid_square_blue">
<g id="background">
<use xlink:href="#path0_fill" transform="translate(-510 -145)" fill="#FFFFFF"/>
</g>
<g id="logo">
<use xlink:href="#path1_stroke" transform="translate(-438.4 -85.7)" fill="#3375BB"/>
</g>
</g>
</g>
<defs>
<path id="path0_fill" d="M 288 0L 3.05176e-06 0L 3.05176e-06 288L 288 288L 288 0Z"/>
<path id="path1_stroke" d="M 72.4 -7.62939e-07L 76.6355 -5.46695C 74.1422 -7.39862 70.6578 -7.39862 68.1645 -5.46695L 72.4 -7.62939e-07ZM 144.9 21.3L 151.815 21.4125C 151.845 19.5591 151.13 17.7711 149.83 16.4498C 148.53 15.1284 146.754 14.3843 144.9 14.3843L 144.9 21.3ZM 72.4 169.4L 68.5687 175.157C 70.8895 176.702 73.9105 176.702 76.2312 175.157L 72.4 169.4ZM -6.10352e-06 21.3L -6.10352e-06 14.3843C -1.85366 14.3843 -3.62972 15.1284 -4.92975 16.4498C -6.22978 17.7711 -6.94494 19.5591 -6.91479 21.4125L -6.10352e-06 21.3ZM 68.1645 5.46695C 99.5498 29.7826 135.462 28.2157 144.9 28.2157L 144.9 14.3843C 135.138 14.3843 103.85 15.6174 76.6355 -5.46695L 68.1645 5.46695ZM 137.985 21.1875C 137.464 53.3107 136.105 75.9691 133.501 92.7573C 130.933 109.367 127.26 119.322 122.533 126.314C 117.743 133.578 111.735 137.889 102.832 143.208C 93.8513 148.587 82.5074 154.381 68.5687 163.643L 76.2312 175.157C 89.4925 166.319 100.549 160.688 109.934 155.076C 119.396 149.405 127.719 143.159 133.992 134.061C 140.327 124.69 144.448 112.476 147.17 94.8708C 149.858 77.4434 151.286 53.8393 151.815 21.4125L 137.985 21.1875ZM 76.2312 163.643C 62.2932 154.381 50.9569 148.588 41.9867 143.21C 33.0938 137.892 27.0986 133.583 22.3207 126.32C 17.6045 119.329 13.9431 109.373 11.3835 92.7609C 8.78909 75.9718 7.43568 53.3117 6.91478 21.1875L -6.91479 21.4125C -6.38569 53.8383 -4.9641 77.4407 -2.28661 94.8672C 0.425651 112.47 4.53294 124.684 10.8543 134.055C 17.1139 143.154 25.4249 149.402 34.8789 155.075C 44.2555 160.687 55.3068 166.319 68.5687 175.157L 76.2312 163.643ZM -6.10352e-06 28.2157C 9.34002 28.2157 45.2509 29.782 76.6355 5.46695L 68.1645 -5.46695C 40.9491 15.618 9.65997 14.3843 -6.10352e-06 14.3843L -6.10352e-06 28.2157Z"/>
</defs>
</svg>
